<svg width="113" height="113" viewBox="0 0 113 113" fill="none" xmlns="http://www.w3.org/2000/svg">
<rect width="113" height="113" fill="#F0F1EC"/>
<path fill-rule="evenodd" clip-rule="evenodd" d="M30.7436 38.5486C27.6851 43.9761 27.5776 44.3266 28.5286 45.7781C28.9866 46.4771 29.6041 47.0486 29.9011 47.0486C30.1976 47.0486 32.3226 47.9306 34.6221 49.0081C41.1206 52.0531 40.6206 49.7731 41.0191 78.1761C41.5731 117.664 42.3851 112.283 43.1501 64.0486L43.4716 43.7986L42.2796 42.7216C41.6246 42.1291 39.6256 41.0381 37.8381 40.2966C34.0886 38.7421 32.9576 37.8721 32.7346 36.3716C32.6111 35.5411 32.1606 36.0341 30.7436 38.5486ZM52.4631 41.7811C48.7541 47.6486 48.9901 49.0486 53.6881 49.0486C55.1456 49.0486 56.3381 49.1426 56.3381 49.2571C56.3381 49.3716 55.8901 50.5111 55.3421 51.7891C53.2911 56.5746 52.1601 64.1631 52.1231 73.3961C52.0996 79.1761 52.2736 82.1806 52.6546 82.5626C53.0771 82.9871 53.8761 82.0466 55.8006 78.8611L58.3801 74.5906L57.1176 72.6826C54.1546 68.2056 54.1416 56.2466 57.0931 50.5386L57.9186 48.9421L67.2536 49.1561C77.5721 49.3926 79.9911 49.9546 81.8351 52.5441C84.8836 56.8256 85.6581 70.3246 83.4791 81.2176C83.2801 82.2131 83.3596 82.5941 83.7196 82.3716C86.0191 80.9506 87.8836 52.7506 86.0801 46.6771C85.2161 43.7681 83.3026 41.8636 80.4476 41.0706C79.4251 40.7866 73.7506 40.5496 67.8381 40.5436C61.9256 40.5381 56.8181 40.3616 56.4881 40.1516C56.1581 39.9421 55.7081 39.2886 55.4881 38.6991C55.1366 37.7586 54.7681 38.1341 52.4631 41.7811Z" fill="black"/>
<rect x="9.5" y="8.5" width="95" height="95" stroke="black"/>
</svg>
