<svg width="565" height="613" viewBox="0 0 565 613" fill="none" xmlns="http://www.w3.org/2000/svg">
<path fill-rule="evenodd" clip-rule="evenodd" d="M0.678 0.688995C0.302 1.065 -0.00297806 75.435 2.19446e-05 165.956L0.00502683 330.539L5.59304 322.059C18.006 303.219 41.043 277.052 54.995 265.945C58.02 263.537 60.72 261.302 60.995 260.979C62.891 258.75 79.52 247.001 88.577 241.49C111.84 227.338 132.54 218.397 158.245 211.401L164.995 209.564V104.835V0.106995L83.178 0.0559998C38.179 0.0289998 1.054 0.313995 0.678 0.688995ZM398.759 79.269C398.447 150.491 398.232 159.39 396.639 166.925C392.829 184.948 385.201 199.698 373.9 210.894C362.534 222.155 349.332 229.556 332.228 234.253C324.898 236.267 321.397 236.413 264.995 237.055C200.646 237.787 201.785 237.699 175.495 244.02C142 252.073 110.123 267.624 83.495 288.902C74.192 296.337 56.2711 314.649 48.8471 324.309C20.6711 360.968 5.57999 398.644 1.08999 443.539C0.594988 448.489 0.258063 488.314 0.342063 532.039L0.495017 611.539L82.745 611.795L164.995 612.051L165.052 554.295C165.151 452.386 165.242 450.2 170.015 434.382C176.833 411.786 196.681 390.614 219.495 381.603C234.04 375.858 234.657 375.807 299.495 375.03C336.697 374.584 362.535 373.86 367.495 373.125C380.015 371.271 406.452 364.506 418.176 360.157C455.974 346.135 493.891 317.831 517.593 285.944C538.179 258.251 552.537 227.04 558.952 196.039C563.785 172.685 564.148 165.174 564.373 83.751C564.489 41.518 564.405 5.424 564.185 3.543L563.786 0.122009L481.446 0.0610046L399.105 0L398.759 79.269ZM560.368 287.71C545.541 313.249 516.534 343.509 486.995 364.252C465.326 379.469 435.108 393.278 405.24 401.613L398.986 403.358L399.24 507.449L399.495 611.539L480.939 611.795C525.733 611.936 562.733 611.701 563.161 611.273C564.004 610.43 564.523 284.233 563.682 283.393C563.401 283.112 561.91 285.055 560.368 287.71Z" fill="black"/>
</svg>
