<svg width="275" height="113" viewBox="0 0 275 113" fill="none" xmlns="http://www.w3.org/2000/svg">
<path fill-rule="evenodd" clip-rule="evenodd" d="M180.135 32.4568C178.204 35.4248 175.57 38.2208 173.62 39.3733C171.211 40.7978 167.712 40.9848 165.993 39.7808C165.364 39.3403 164.778 39.0588 164.691 39.1558C164.604 39.2528 163.492 41.2648 162.221 43.6273C159.939 47.8678 159.922 47.9338 160.892 48.8113C161.984 49.7993 165.655 50.3808 167.647 49.8808C170.652 49.1263 173.761 44.9213 181.264 31.4568C181.826 30.4498 180.918 31.2533 180.135 32.4568ZM142.329 38.7078C141.319 41.2508 140.341 43.9388 140.156 44.6803C139.549 47.1108 140.849 49.6273 144.532 53.1503L148.001 56.4688L145.431 59.6503C140.009 66.3618 137.774 72.9258 139.665 76.5828C140.405 78.0133 140.386 78.0573 138.35 79.6828C136.312 81.3103 132.729 85.5633 133.091 85.9248C133.193 86.0273 134.039 85.3948 134.971 84.5193C137.384 82.2513 140.077 81.2293 144.671 80.8393L148.677 80.4988L150.921 76.6903C153.678 72.0098 153.744 71.8483 152.749 72.2303C152.308 72.3993 150.832 72.2063 149.468 71.8013C144.967 70.4648 143.363 67.0663 145.18 62.7178C146.068 60.5923 148.259 57.5818 148.918 57.5818C149.167 57.5818 153.637 61.4223 158.852 66.1168C168.705 74.9863 169.885 76.4618 170.39 80.5488L170.664 82.7658L172.302 78.7893C174.585 73.2468 174.741 71.7913 173.325 69.2353C172.608 67.9403 168.341 63.6623 162.164 58.0468C144.212 41.7248 143.555 40.9408 144.082 36.4873C144.239 35.1643 144.321 34.0823 144.266 34.0828C144.21 34.0833 143.338 36.1648 142.329 38.7078ZM58.4506 39.2903C56.3266 43.3168 56.2696 43.5368 57.0411 44.7143C57.5481 45.4883 59.3431 46.5453 61.9001 47.5763C68.0051 50.0368 68.6086 51.8168 65.6336 58.5833C64.6541 60.8108 63.9226 63.2233 64.0086 63.9443C64.2116 65.6538 65.4141 66.0848 65.4141 64.4483C65.4141 62.6023 66.2251 60.4373 69.5596 53.3793C72.7521 46.6223 73.2366 44.2028 71.7086 42.6473C71.2681 42.1988 68.8276 40.9288 66.2856 39.8253C62.2151 38.0578 61.6451 37.6553 61.5061 36.4503C61.4191 35.6978 61.1941 35.0848 61.0061 35.0878C60.8181 35.0913 59.6681 36.9823 58.4506 39.2903ZM118.513 39.0123C117.359 41.1783 116.414 43.2783 116.414 43.6788C116.414 44.8363 118.419 46.3293 121.664 47.5883C127.977 50.0383 128.408 50.9833 128.426 62.4283C128.439 70.8943 129.184 81.7598 129.832 82.9168C130.098 83.3923 130.396 78.6118 130.589 70.7663C130.764 63.6523 131.11 54.9473 131.358 51.4223C131.606 47.8973 131.656 44.4098 131.468 43.6723C131.192 42.5853 130.238 41.9008 126.42 40.0508C122.885 38.3373 121.576 37.4338 121.162 36.4218C120.62 35.0958 120.577 35.1378 118.513 39.0123ZM198.82 38.0818C195.761 43.5093 195.654 43.8598 196.605 45.3113C197.063 46.0103 197.68 46.5818 197.977 46.5818C198.274 46.5818 200.399 47.4638 202.698 48.5413C209.197 51.5863 208.697 49.3063 209.095 77.7093C209.649 117.197 210.461 111.816 211.226 63.5818L211.548 43.3318L210.356 42.2548C209.701 41.6623 207.702 40.5713 205.914 39.8298C202.165 38.2753 201.034 37.4053 200.811 35.9048C200.687 35.0743 200.237 35.5673 198.82 38.0818ZM22.5131 41.0688C20.5116 44.2138 19.8991 45.6133 20.0131 46.7828L20.1641 48.3318L31.1641 48.5883C43.1831 48.8683 44.9551 49.2638 47.0521 52.1363C48.5381 54.1723 49.1646 60.5993 48.5001 66.9978C48.0156 71.6688 47.6076 73.7133 46.1006 79.0238C45.8481 79.9133 45.9381 80.1573 46.4546 79.9848C47.3151 79.6983 48.6361 75.4368 49.7306 69.4198C50.2961 66.3078 50.5806 61.8528 50.6146 55.5733C50.6736 44.5318 50.2021 42.7948 46.6846 41.0918C44.8351 40.1963 43.6056 40.0818 35.8516 40.0818C26.7231 40.0818 25.6771 39.8618 25.3311 37.8678C25.2116 37.1773 24.4121 38.0858 22.5131 41.0688ZM220.539 41.3143C216.83 47.1818 217.066 48.5818 221.764 48.5818C223.222 48.5818 224.414 48.6758 224.414 48.7903C224.414 48.9048 223.966 50.0443 223.418 51.3223C221.367 56.1078 220.236 63.6963 220.199 72.9293C220.176 78.7093 220.35 81.7138 220.731 82.0958C221.153 82.5203 221.952 81.5798 223.877 78.3943L226.456 74.1238L225.194 72.2158C222.231 67.7388 222.218 55.7798 225.169 50.0718L225.995 48.4753L235.33 48.6893C245.648 48.9258 248.067 49.4878 249.911 52.0773C252.96 56.3588 253.734 69.8578 251.555 80.7508C251.356 81.7463 251.436 82.1273 251.796 81.9048C254.095 80.4838 255.96 52.2838 254.156 46.2103C253.292 43.3013 251.379 41.3968 248.524 40.6038C247.501 40.3198 241.827 40.0828 235.914 40.0768C230.002 40.0713 224.894 39.8948 224.564 39.6848C224.234 39.4753 223.784 38.8218 223.564 38.2323C223.213 37.2918 222.844 37.6673 220.539 41.3143ZM91.5801 39.3598C87.2091 41.5873 79.9626 51.6238 78.3441 57.6918C77.7971 59.7438 77.8261 60.2863 78.5691 61.8433C79.9601 64.7608 84.7296 66.3873 88.1171 65.0998C89.0116 64.7593 89.9896 63.4148 91.4396 60.5308C93.0681 57.2923 93.3046 56.5188 92.5791 56.8053C89.5631 57.9968 85.5316 57.4473 83.5176 55.5708C82.0991 54.2498 82.0891 51.9758 83.4916 49.7068C87.1506 43.7858 99.6296 45.4148 106.184 52.6693C108.892 55.6668 110.904 60.2658 110.959 63.5818L111.004 66.3318L111.75 63.8318C112.181 62.3883 112.532 59.0073 112.58 55.8318C112.654 51.0078 112.519 50.0098 111.479 47.7108C109.124 42.5003 103.414 38.9698 96.9141 38.7053C94.2036 38.5948 92.7251 38.7763 91.5801 39.3598ZM106.664 71.0458C105.513 71.6493 102.955 71.8898 95.6501 72.0818C84.6586 72.3708 84.8171 72.3093 81.0011 77.7488C77.6581 82.5133 77.5521 82.7878 79.5191 81.5888C80.9976 80.6868 82.0496 80.5843 89.9141 80.5718C99.4306 80.5568 101.937 80.2043 103.595 78.6473C104.661 77.6453 108.687 70.6423 108.341 70.3898C108.244 70.3183 107.489 70.6138 106.664 71.0458Z" fill="black"/>
<rect x="8.5" y="8.5" width="258" height="95" stroke="black"/>
</svg>
